<svg version="1.1" id="Layer_1" xmlns="http://www.w3.org/2000/svg" xmlns:xlink="http://www.w3.org/1999/xlink" x="0px" y="0px"
	 width="100%" viewBox="0 0 1024 1024" enable-background="new 0 0 1024 1024" xml:space="preserve">
<path fill="#839cb5" opacity="1.000000" stroke="none" 
	d="
M511.040833,694.075500 
	C510.033844,684.677795 508.597687,675.718323 508.132324,666.708740 
	C507.602234,656.444702 505.313599,646.421936 504.748871,636.173462 
	C504.265839,627.408081 502.556641,618.773560 500.902771,610.153076 
	C500.686218,609.024231 500.735077,607.845886 500.639465,606.692261 
	C499.838318,597.028931 499.668060,587.286133 496.952850,577.863464 
	C496.728058,577.083374 496.710205,576.196350 496.798340,575.380798 
	C497.843506,565.712952 495.044556,556.302612 494.177917,546.816650 
	C493.602142,540.514587 492.849579,533.797485 491.513428,527.332703 
	C490.037445,520.191589 489.800110,512.562805 488.871765,505.179138 
	C487.826172,496.862915 487.554230,488.473175 485.917023,480.198608 
	C484.641968,473.754608 484.029358,467.126648 483.742188,460.553314 
	C483.371582,452.071350 482.161987,443.780396 480.347687,435.498627 
	C479.041840,429.537872 479.292206,423.322205 478.623291,417.244598 
	C477.666779,408.553925 476.972534,399.693390 475.823700,391.063263 
	C474.827515,383.579742 475.660553,375.925262 473.347260,368.503906 
	C471.903900,363.873413 471.387207,358.667755 471.189362,353.911163 
	C470.823669,345.118347 468.436554,336.562134 468.762573,327.745850 
	C468.824127,326.080139 469.382202,323.562347 466.609192,323.543884 
	C464.237640,323.528076 463.298004,325.442963 463.138672,327.667175 
	C462.121521,341.866821 457.704651,355.481537 455.826538,369.485535 
	C454.702515,377.866669 453.031494,386.149689 451.820099,394.505096 
	C450.425049,404.127228 449.097839,413.791870 446.898041,423.322968 
	C444.902100,431.970734 444.039978,440.875122 442.509644,449.636993 
	C441.090149,457.764252 439.531372,465.856659 438.494202,474.056702 
	C437.604187,481.093445 436.131927,488.075165 434.916168,495.054871 
	C433.141022,505.245880 431.067780,515.429138 429.006042,525.592224 
	C427.955597,530.770447 427.140991,535.996216 426.194946,541.195984 
	C424.399536,551.063904 422.497681,560.913391 420.807983,570.799255 
	C419.418488,578.928894 418.649658,587.180786 416.931091,595.234436 
	C414.209473,607.988770 413.146179,621.029846 409.767822,633.684814 
	C408.594482,638.080078 408.933807,642.895996 407.435913,647.376038 
	C405.046967,654.520935 397.436249,660.051514 390.372498,659.331665 
	C384.215302,658.704285 380.746155,654.146729 377.926025,649.487427 
	C369.224335,635.110901 362.656769,619.617249 355.135834,604.621765 
	C342.393097,579.214722 329.859131,553.703064 317.167511,528.270264 
	C316.091766,526.114563 315.140717,523.349731 312.085236,523.341553 
	C308.867615,523.332947 308.458252,526.447693 307.351349,528.506287 
	C296.718292,548.281921 285.790527,567.914429 275.779663,588.002869 
	C270.398041,598.801941 261.130341,601.987793 250.903732,602.051147 
	C191.742035,602.418030 132.576797,602.254028 73.412865,602.181030 
	C63.860241,602.169189 53.280121,595.234314 50.691772,586.512268 
	C49.290356,581.789856 53.194016,577.765259 56.288601,574.560730 
	C59.643639,571.086548 63.986107,569.569214 69.300926,569.588501 
	C127.630974,569.800598 185.962311,569.648621 244.292542,569.835938 
	C249.926254,569.854004 252.962662,567.878357 255.563599,562.993347 
	C268.906677,537.932373 282.544678,513.027771 296.173401,488.119934 
	C298.807068,483.306610 301.861420,478.767914 306.068573,475.054688 
	C311.120270,470.595978 315.985016,470.577026 321.118195,475.114014 
	C328.109833,481.293579 331.265625,489.853485 335.273499,497.830048 
	C350.115906,527.369873 364.748657,557.014954 379.508087,586.596619 
	C380.494690,588.574036 381.081635,591.697449 384.012482,591.139587 
	C386.481445,590.669556 387.371338,587.618713 387.443329,585.581055 
	C387.726990,577.552856 390.967834,570.171326 391.967224,562.300171 
	C393.199524,552.594360 395.012543,542.957031 396.754791,533.322693 
	C398.875061,521.597656 401.307953,509.928467 403.376007,498.194672 
	C405.641388,485.341309 407.104370,472.321289 409.940277,459.602051 
	C412.062561,450.083618 412.973053,440.403534 415.036316,430.889160 
	C416.642334,423.483215 417.322113,415.870300 418.860535,408.408661 
	C420.860718,398.707642 422.421783,388.904663 424.096161,379.155212 
	C425.601440,370.390381 427.638611,361.713043 428.827789,352.856903 
	C430.450439,340.772522 431.883575,328.634857 434.868622,316.704071 
	C437.307983,306.954407 437.778809,296.728363 439.845154,286.864990 
	C442.255005,275.362030 442.511841,263.492371 446.252777,252.205154 
	C447.695679,247.851700 447.860962,243.075531 448.616180,238.493256 
	C450.413879,227.586075 452.100647,216.658844 454.057159,205.780167 
	C455.371338,198.473053 461.909332,192.429535 469.010864,191.598831 
	C469.928528,191.491470 471.022003,191.734756 471.847321,192.169876 
	C479.701233,196.310562 484.508484,202.263458 485.278381,211.647537 
	C486.345886,224.659409 488.758850,237.566284 489.678467,250.582916 
	C490.227295,258.351135 491.547424,266.001862 492.540741,273.660675 
	C493.552002,281.458069 493.125519,289.510529 495.766815,297.097107 
	C496.086182,298.014374 496.052155,299.062622 496.132202,300.054169 
	C497.769714,320.336243 500.063110,340.535919 502.768158,360.710052 
	C503.752625,368.052094 504.077759,375.582642 505.449158,382.856567 
	C507.875000,395.723480 508.177368,408.796051 509.933380,421.728821 
	C511.714111,434.843475 513.150879,448.085175 514.882568,461.202301 
	C515.978943,469.507294 515.683899,477.943939 517.615479,486.282837 
	C519.026733,492.375397 519.872314,498.943970 520.117859,505.360779 
	C520.441406,513.816467 522.305237,522.053467 523.130066,530.430176 
	C523.828064,537.517944 524.635437,544.595093 525.415649,551.674683 
	C526.367615,560.312256 526.782166,569.023804 529.000244,577.489441 
	C529.249268,578.440002 529.267700,579.471619 529.262573,580.464966 
	C529.210815,590.409424 531.767395,600.044067 532.718689,609.821960 
	C533.389648,616.718750 535.166016,623.472107 535.174622,630.446228 
	C535.187256,640.748047 538.241028,650.749573 538.591736,660.994751 
	C539.004822,673.062378 541.135559,684.933472 542.669189,696.832886 
	C543.475342,703.088440 543.989136,709.293457 544.348633,715.557678 
	C544.476868,717.791687 545.244934,720.272705 547.784058,720.374268 
	C550.513428,720.483337 549.440491,717.739258 549.947388,716.153503 
	C552.562622,707.971069 553.318970,699.387634 555.152588,691.039551 
	C557.059753,682.356567 558.960449,673.630066 560.868591,664.935181 
	C563.829163,651.444702 565.969849,637.777771 570.204529,624.540894 
	C572.293701,618.010437 572.533081,610.910583 574.000488,604.153259 
	C575.717712,596.245605 577.644287,588.367981 579.885132,580.594116 
	C581.801453,573.945801 587.875916,569.812683 594.976624,569.737366 
	C601.142395,569.671997 607.315613,569.536987 613.473206,569.764587 
	C617.044739,569.896667 619.224792,568.589294 620.190125,565.228516 
	C623.746460,552.846924 628.204712,540.754639 631.900391,528.406311 
	C634.594543,519.404236 637.845520,510.506500 640.837158,501.560486 
	C646.974609,483.207550 652.907349,464.786224 659.012695,446.422424 
	C661.051697,440.289459 663.038391,434.138824 665.694824,428.213684 
	C668.380371,422.223602 672.686157,417.816498 679.238586,418.205566 
	C685.766296,418.593170 691.173218,422.109558 693.604553,428.880951 
	C698.402222,442.242523 703.270569,455.578705 708.066833,468.940765 
	C712.807617,482.148407 717.524231,495.364807 722.198425,508.596130 
	C726.924805,521.975586 731.527161,535.399109 736.301880,548.761108 
	C738.589050,555.161865 741.182983,561.452332 743.569214,567.818542 
	C744.580017,570.515320 746.849854,569.671814 748.679077,569.677063 
	C769.678040,569.737366 790.677185,569.719971 811.676331,569.720337 
	C825.342407,569.720520 839.008545,569.708008 852.674622,569.715088 
	C887.576965,569.733093 922.479248,569.768799 957.381592,569.772339 
	C963.676453,569.773010 969.753662,571.230957 973.332825,576.490417 
	C980.621094,587.200317 975.371826,597.461670 962.239258,600.371765 
	C948.908997,603.325684 935.456055,602.175720 922.056274,602.207642 
	C863.059021,602.348389 804.060120,602.467224 745.064453,602.131287 
	C726.950928,602.028137 721.156372,596.085693 716.796631,581.867065 
	C713.019714,569.549500 708.589905,557.425537 704.229248,545.294861 
	C697.248230,525.874939 690.090637,506.518463 682.991943,487.140900 
	C682.326172,485.323669 682.160583,482.838379 679.729309,482.595276 
	C676.760315,482.298401 677.100464,485.289795 676.566284,486.906067 
	C672.998474,497.700653 669.710632,508.587219 666.250183,519.417786 
	C658.722168,542.979065 651.198303,566.541931 643.552856,590.065125 
	C641.498169,596.386597 632.581970,602.036621 624.899658,602.208374 
	C620.235352,602.312683 615.545044,602.533936 610.907776,602.172546 
	C607.037842,601.870911 604.856812,603.413086 603.991516,606.908386 
	C602.368164,613.465759 600.850037,620.051697 599.430908,626.656494 
	C597.358215,636.303162 595.435303,645.981873 593.403564,655.637512 
	C591.743286,663.528259 590.246948,671.463928 588.252075,679.270874 
	C586.452759,686.312744 585.155579,693.508789 583.957153,700.591187 
	C582.218323,710.866760 579.100952,720.768433 577.178162,730.977356 
	C575.139771,741.800232 573.495361,752.707642 571.016052,763.486694 
	C569.298340,770.955078 567.794250,778.594177 566.273560,786.170166 
	C564.196350,796.518311 561.914673,806.825378 559.744629,817.155090 
	C559.269653,819.416321 559.054321,821.742310 558.445496,823.963440 
	C556.526978,830.962891 551.336853,834.309143 544.600586,835.002441 
	C537.508057,835.732422 532.805786,831.553772 529.268188,825.904724 
	C526.923218,822.160217 526.426086,817.979492 525.776367,813.625488 
	C523.881531,800.928284 523.560120,788.081543 521.257385,775.391418 
	C519.765564,767.170105 520.453674,758.455872 518.637146,750.181396 
	C516.979187,742.629150 517.330139,734.860718 515.244324,727.332336 
	C513.721130,721.834717 514.595459,715.933411 513.285522,710.136597 
	C512.154785,705.133179 512.170166,699.672974 511.040833,694.075500 
z"/>
<path fill="#000000" opacity="1.000000" stroke="none" 
	d="
M383.583252,715.934937 
	C384.507233,718.369263 384.657135,720.446960 383.282501,722.925781 
	C381.844788,716.577454 377.717834,712.347229 372.790375,708.637573 
	C378.344696,708.070068 380.778229,711.982666 383.583252,715.934937 
z"/>
<path fill="#000000" opacity="1.000000" stroke="none" 
	d="
M941.727783,652.737183 
	C940.483398,654.151367 940.235352,656.143066 937.818481,656.315613 
	C937.508423,652.876404 940.206482,651.294617 941.878540,648.696655 
	C943.270020,650.273926 942.221619,651.366455 941.727783,652.737183 
z"/>
</svg>