<svg version="1.1" id="Layer_1" xmlns="http://www.w3.org/2000/svg" xmlns:xlink="http://www.w3.org/1999/xlink" x="0px" y="0px"
	 width="100%" viewBox="0 0 1080 1080" enable-background="new 0 0 1080 1080" xml:space="preserve">
<path fill="#FFFFFF" opacity="0.000000" stroke="none" 
	d="
M484.000000,1081.000000 
	C322.685211,1081.000000 161.870453,1081.000000 1.027839,1081.000000 
	C1.027839,721.060120 1.027839,361.120209 1.027839,1.090152 
	C360.898346,1.090152 720.796692,1.090152 1080.847534,1.090152 
	C1080.847534,360.999939 1080.847534,720.999939 1080.847534,1081.000000 
	C882.119690,1081.000000 683.309875,1081.000000 484.000000,1081.000000 
M465.033478,443.352997 
	C468.156128,449.602997 471.224884,455.880676 474.416138,462.095459 
	C477.755157,468.597961 480.821228,475.288635 484.732544,481.435181 
	C488.289368,487.024628 495.306732,486.385803 498.276917,480.452332 
	C499.479279,478.050385 499.683258,475.114990 500.164734,472.391083 
	C505.521606,442.084808 510.889954,411.780457 516.161011,381.459229 
	C520.527832,356.339630 524.743896,331.193787 529.142883,306.079926 
	C529.350525,304.894257 530.687500,303.906433 532.370361,301.665375 
	C533.073242,309.403931 533.493042,315.458618 534.197144,321.480103 
	C535.689453,334.242889 537.392944,346.980927 538.889404,359.743256 
	C540.042175,369.574829 540.897034,379.441772 542.088074,389.268280 
	C543.932678,404.486237 546.062561,419.669983 547.861206,434.893036 
	C549.388245,447.816864 550.438049,460.797913 552.023376,473.713776 
	C554.149719,491.037689 556.720215,508.307037 558.853516,525.630127 
	C560.725830,540.833679 562.218567,556.083618 563.964783,571.303223 
	C564.495789,575.931396 568.622986,579.912720 572.715088,580.079407 
	C577.472839,580.273132 579.671509,578.224792 581.210632,572.238953 
	C581.784973,570.005310 582.578918,567.821167 583.043457,565.567200 
	C589.090027,536.229492 595.067017,506.877441 601.130005,477.543152 
	C602.748169,469.714355 604.597595,461.933319 606.351624,454.082214 
	C610.357361,454.082214 613.687256,454.218842 617.001465,454.048615 
	C621.426941,453.821350 625.398987,452.036621 626.938477,447.789948 
	C630.598389,437.694000 633.826965,427.438019 637.075623,417.197784 
	C640.039490,407.855103 642.800537,398.448090 645.998108,387.927277 
	C647.389893,389.888580 648.351135,390.776428 648.745544,391.868927 
	C654.857971,408.797089 660.985596,425.720825 666.916565,442.712982 
	C670.029968,451.632599 673.139160,454.101044 682.489990,454.101379 
	C717.818176,454.102539 753.146362,454.127502 788.474426,454.059021 
	C791.923401,454.052338 795.395691,453.626495 798.814270,453.110382 
	C805.282043,452.133972 807.462952,449.696594 807.101318,444.268982 
	C806.767090,439.252594 803.664612,436.906586 797.294312,436.905334 
	C760.466370,436.897919 723.638428,436.898529 686.810486,436.896423 
	C685.029419,436.896301 683.248413,436.896393 681.621033,436.896393 
	C676.457031,422.471680 671.477661,408.634796 666.551392,394.778931 
	C662.676025,383.878815 658.893616,372.945648 655.012634,362.047546 
	C653.645325,358.208191 651.202393,355.350800 646.889832,354.934143 
	C642.416809,354.501984 640.365295,357.549957 638.858459,361.102936 
	C638.150146,362.773071 637.539551,364.489655 636.972473,366.214081 
	C630.428406,386.113586 623.935913,406.030121 617.355713,425.917664 
	C613.740784,436.843323 613.677551,436.822388 602.381287,436.900848 
	C596.560974,436.941284 593.485535,438.961365 592.242371,444.386749 
	C588.353516,461.358215 584.605896,478.362854 580.931335,495.382202 
	C579.254578,503.148132 577.877502,510.978760 576.055969,520.370911 
	C574.543213,517.845459 573.364319,516.730713 573.214417,515.491394 
	C572.065186,505.993927 571.134277,496.470276 570.099976,486.958649 
	C569.031677,477.134064 567.960754,467.309540 566.822021,457.492950 
	C565.625610,447.178406 564.332275,436.875122 563.109680,426.563568 
	C562.002625,417.226440 560.970520,407.880341 559.839111,398.546234 
	C558.292419,385.784271 556.617310,373.037628 555.119324,360.270142 
	C553.658997,347.824493 552.445007,335.349731 550.954651,322.907898 
	C549.094788,307.380829 547.004333,291.881470 545.124023,276.356750 
	C543.678467,264.421997 542.450623,252.460907 541.025391,240.523529 
	C540.579102,236.785355 535.847473,231.647354 532.965881,232.182922 
	C528.961243,232.927231 525.696289,234.898392 524.856201,239.613190 
	C523.014343,249.950073 520.745911,260.212189 518.972473,270.559814 
	C514.810486,294.844940 510.927917,319.177948 506.764130,343.462738 
	C501.571045,373.751129 496.249298,404.017670 490.880005,434.275330 
	C489.995850,439.257721 488.582733,444.146210 487.414093,449.078064 
	C486.917969,449.070465 486.421814,449.062866 485.925659,449.055267 
	C485.153687,447.668518 484.328339,446.308502 483.617920,444.890900 
	C474.984161,427.662354 466.561371,410.323151 457.591156,393.271912 
	C455.670563,389.621094 452.194000,385.126251 448.701813,384.360474 
	C443.659546,383.254761 441.218262,389.000366 439.024567,392.934021 
	C431.746246,405.985291 424.670868,419.153839 417.770752,432.409149 
	C415.975891,435.857147 413.785767,437.013428 409.949677,436.986420 
	C386.121002,436.818573 362.290558,436.900543 338.460724,436.899170 
	C330.628540,436.898743 322.795502,436.826874 314.964508,436.922363 
	C310.296265,436.979309 307.250458,440.070038 306.645599,444.059357 
	C306.314117,446.245514 308.538330,449.618896 310.586639,451.154388 
	C312.904907,452.892303 316.312225,453.947083 319.254211,453.965210 
	C351.081696,454.161407 382.910858,454.126251 414.739380,454.072784 
	C420.820435,454.062561 425.489075,451.650116 428.282257,445.810730 
	C431.291962,439.518555 434.719666,433.424408 438.024567,427.275879 
	C440.979431,421.778564 444.015472,416.324860 447.863617,409.305023 
	C453.926636,421.274689 459.341278,431.964294 465.033478,443.352997 
M166.264801,674.202515 
	C163.085815,666.804443 159.831787,659.437561 156.746002,652.000854 
	C152.442947,641.630493 147.574051,631.424622 144.227921,620.747070 
	C140.843307,609.946777 135.006073,604.784729 123.529488,607.325623 
	C122.735626,607.501465 121.859886,607.424561 121.037201,607.332031 
	C118.131142,607.005249 117.306870,608.415161 117.312126,611.138123 
	C117.367798,639.959595 117.373413,668.781372 117.299835,697.602783 
	C117.292343,700.538330 118.089134,701.856506 121.263374,701.704529 
	C125.880157,701.483582 130.515366,701.647766 135.800552,701.647766 
	C135.800552,682.562195 135.800552,663.434082 135.800552,644.305969 
	C137.092392,644.637756 137.429520,645.129883 137.646484,645.670288 
	C143.648163,660.616699 149.819534,675.498413 155.568710,690.541504 
	C159.791580,701.590942 159.550247,701.466309 170.311295,701.775940 
	C174.056000,701.883606 175.665558,700.263672 176.833130,697.288635 
	C181.470474,685.472595 186.093994,673.650879 190.773529,661.851501 
	C193.146088,655.869141 195.627167,649.929810 198.059174,643.970947 
	C198.491180,644.077515 198.923203,644.184082 199.355209,644.290588 
	C199.355209,646.060303 199.355392,647.829956 199.355179,649.599670 
	C199.353241,665.426392 199.285858,681.253784 199.454178,697.078735 
	C199.470352,698.600159 200.861389,701.349426 201.768692,701.415771 
	C207.326019,701.822083 212.927902,701.619080 218.689102,701.619080 
	C218.689102,671.031799 218.676941,641.215515 218.707901,611.399170 
	C218.710983,608.419312 218.143127,606.793274 214.433868,607.205444 
	C209.989395,607.699402 205.398636,607.776184 200.970993,607.227844 
	C197.639771,606.815308 196.727158,608.194885 195.661026,610.802979 
	C186.972504,632.057861 178.164444,653.263916 169.278488,674.436890 
	C169.084137,674.899963 167.535065,674.794495 166.264801,674.202515 
M388.095428,631.588989 
	C388.288055,623.313721 388.580780,615.038391 388.579742,606.763123 
	C388.579559,605.298584 387.368652,602.575562 386.693665,602.568237 
	C381.146027,602.507996 375.592896,602.952454 369.261230,603.284729 
	C369.261230,614.410522 369.261230,625.157593 369.261230,636.587280 
	C368.005829,635.652649 367.574982,635.415283 367.248840,635.077026 
	C354.299500,621.644470 328.108337,624.775391 318.137054,643.068176 
	C310.758057,656.605286 311.140594,670.576416 316.880676,684.624695 
	C321.756531,696.557983 338.264984,705.145508 350.896973,702.772888 
	C358.291962,701.383911 364.745239,698.670471 370.332153,691.511658 
	C370.684204,695.910400 370.913086,698.770386 371.128967,701.467957 
	C375.595490,701.467957 380.012268,700.887695 384.180664,701.655640 
	C387.387115,702.246338 388.067230,701.505188 388.122650,698.712463 
	C388.257568,691.912048 388.639282,685.112366 388.608124,678.313843 
	C388.538177,663.064514 388.277649,647.816162 388.095428,631.588989 
M591.807678,684.227844 
	C591.807129,667.064758 591.879089,649.900818 591.687988,632.739868 
	C591.669922,631.116150 590.131653,628.224670 589.075500,628.117065 
	C584.188660,627.619141 579.222778,627.897095 573.953491,627.897095 
	C573.953491,631.367493 573.953491,634.108093 573.953491,637.703491 
	C572.431091,636.595581 570.932739,635.641113 569.597046,634.496948 
	C568.090942,633.206848 566.964172,631.278320 565.270325,630.434021 
	C552.448181,624.042419 533.833435,625.721313 524.059509,639.150696 
	C517.297363,648.441956 516.291504,659.004395 516.724670,670.278198 
	C517.577454,692.473145 536.867554,707.362305 557.218994,701.932617 
	C562.840576,700.432861 567.897156,696.815247 573.159180,694.196045 
	C573.434753,695.809204 573.870789,698.361633 574.355469,701.198792 
	C578.966675,701.454590 583.453552,701.433350 587.857605,702.026978 
	C591.906738,702.572815 592.277588,700.636719 592.075073,697.445923 
	C591.816040,693.362915 591.880066,689.259338 591.807678,684.227844 
M302.876312,654.766724 
	C297.615295,625.133423 265.598022,621.718506 247.377106,632.442261 
	C228.856598,643.342468 228.079361,671.654175 237.392197,687.571594 
	C244.123459,699.076721 261.039368,704.600586 275.945709,702.561707 
	C287.333496,701.004028 301.151306,688.239868 301.496857,678.897949 
	C297.005524,678.897949 292.510773,679.057495 288.033875,678.843628 
	C284.876862,678.692871 282.685852,679.309937 280.509888,682.086060 
	C276.014954,687.820801 267.775421,689.269287 260.504150,686.396179 
	C254.248962,683.924561 249.661057,676.938782 250.125046,670.222534 
	C266.555267,670.222534 283.017761,669.983154 299.463165,670.406555 
	C303.145477,670.501343 303.913177,669.644592 303.717499,666.538574 
	C303.488037,662.896423 303.285828,659.252563 302.876312,654.766724 
M441.228424,685.208801 
	C447.530701,697.135559 458.125122,702.097473 470.919556,703.033936 
	C486.447571,704.170471 501.804443,696.434814 506.344879,680.287903 
	C507.329529,676.786194 505.928223,676.413818 503.457611,676.434448 
	C499.138733,676.470581 494.814697,676.629333 490.509247,676.954346 
	C489.531494,677.028137 488.456909,677.828186 487.711029,678.577026 
	C485.684448,680.611389 484.092407,683.180969 481.822601,684.851562 
	C474.993469,689.877930 462.411804,686.915894 458.638336,679.662415 
	C454.343506,671.406799 453.765808,662.765259 456.721008,654.084229 
	C458.958496,647.511658 463.921082,643.348145 470.892273,642.706482 
	C477.636292,642.085693 483.847290,643.481689 487.278107,650.471313 
	C487.875977,651.689392 489.193451,653.354736 490.253571,653.411438 
	C495.777527,653.706970 501.325745,653.549194 506.981262,653.549194 
	C504.700317,641.125244 495.831207,629.405945 479.504639,627.443848 
	C461.350067,625.262024 444.898956,631.926270 438.891754,651.090637 
	C435.330170,662.453003 436.470001,673.609741 441.228424,685.208801 
M660.137207,676.104553 
	C658.648804,672.277283 656.731995,668.556946 655.745361,664.604431 
	C651.190552,646.356934 659.651489,627.187317 671.914734,620.736450 
	C685.669006,613.501099 708.190063,615.349426 716.565186,631.811768 
	C717.279175,633.215149 719.069519,634.749329 720.536743,634.953857 
	C723.888489,635.421204 727.349915,635.101501 731.410767,635.101501 
	C730.743896,633.047180 730.403809,631.290100 729.636841,629.744934 
	C719.731506,609.788818 697.031250,603.454163 678.424194,607.565308 
	C660.980164,611.419678 649.570984,622.234070 644.775024,639.579102 
	C639.086121,660.153870 644.344238,684.159546 663.607788,695.505554 
	C679.549622,704.895081 696.348389,704.747375 712.669800,696.916565 
	C721.912659,692.481995 728.246826,684.604614 731.279297,674.053467 
	C724.236267,674.149109 716.522034,671.175537 713.999695,681.104797 
	C713.827820,681.781433 712.827942,682.238892 712.232178,682.817932 
	C696.844116,697.773499 672.417847,694.826721 660.137207,676.104553 
M949.263855,700.293518 
	C962.099976,704.578369 974.695251,705.016418 986.059875,696.532898 
	C992.199646,691.949707 996.338257,685.748779 996.989380,677.291809 
	C994.733032,677.291809 993.081543,677.365479 991.438843,677.276489 
	C987.945251,677.087280 985.881165,677.817810 983.743835,681.554626 
	C975.348633,696.232483 955.852112,694.765747 948.001648,685.982544 
	C941.351013,678.541687 939.691895,669.752502 940.802368,660.569031 
	C942.434326,647.071899 947.593628,640.350098 957.994995,638.012756 
	C967.690857,635.833923 976.826233,636.739746 984.295837,649.618042 
	C984.880493,650.626038 986.504333,651.395325 987.749023,651.581604 
	C990.439636,651.984070 993.197693,651.935913 996.558472,652.103577 
	C996.388123,650.298889 996.549561,648.481812 996.012451,646.902344 
	C992.913086,637.788391 986.225891,632.286499 977.418396,629.125732 
	C965.905457,624.994019 947.992188,626.883606 939.321045,636.310608 
	C933.555359,642.578979 930.069275,649.495056 928.999695,657.760803 
	C926.708923,675.464050 931.950439,691.745728 949.263855,700.293518 
M826.103027,672.510254 
	C826.444092,667.424744 827.006592,662.342468 827.080322,657.253052 
	C827.236206,646.495117 832.863159,640.489868 842.907227,637.706604 
	C849.647034,635.839111 861.982361,638.130493 865.250549,647.046936 
	C866.518433,650.505920 867.531616,654.208069 867.784058,657.860046 
	C868.434082,667.264709 868.807617,676.702026 868.862122,686.128723 
	C868.890137,690.980835 868.001526,695.838196 867.506653,700.902344 
	C872.142090,701.437683 875.929443,701.875061 879.132141,702.244934 
	C879.132141,684.661682 879.789856,667.735779 878.764465,650.912537 
	C878.419922,645.259705 874.962158,638.715454 870.891235,634.585938 
	C861.080383,624.634216 838.137939,623.907837 829.145325,637.030945 
	C828.733948,637.631226 827.493286,637.663269 826.869751,637.879761 
	C826.405212,634.447693 827.031860,629.664734 825.300659,628.552734 
	C822.869812,626.991516 818.686890,628.158325 815.222900,628.158325 
	C815.222900,652.511475 815.222900,676.708679 815.222900,700.761230 
	C819.018555,700.761230 822.430359,700.761230 826.104919,700.761230 
	C826.104919,691.458008 826.104919,682.482361 826.103027,672.510254 
M627.109802,619.501099 
	C627.109802,614.060730 627.109802,608.620300 627.109802,603.077454 
	C620.807129,603.077454 615.039612,603.077454 608.858704,603.077454 
	C608.858704,607.529236 608.856262,611.818298 608.859131,616.107361 
	C608.868469,629.942627 608.887024,643.777954 608.888306,657.613220 
	C608.889526,670.942322 608.795532,684.272461 608.975281,697.599060 
	C608.995361,699.081482 610.431885,701.737122 611.380371,701.815918 
	C616.460571,702.237915 621.594238,702.015076 627.110229,702.015076 
	C627.110229,674.740417 627.110229,647.620667 627.109802,619.501099 
M412.446503,701.365234 
	C415.871185,701.365234 419.295837,701.365234 422.970093,701.365234 
	C422.970093,677.169128 422.970093,652.692444 422.970093,627.947144 
	C417.155640,627.947144 411.752960,627.947144 406.072876,627.947144 
	C406.072876,652.480591 406.072876,676.788818 406.072876,701.364929 
	C408.174469,701.364929 409.825653,701.364929 412.446503,701.365234 
M761.380432,669.500854 
	C761.380432,647.126465 761.380432,624.752075 761.380432,602.269409 
	C757.121948,602.269409 753.237915,602.269409 749.618530,602.269409 
	C749.618530,619.062134 749.618530,635.486206 749.618530,651.910278 
	C749.618530,668.300293 749.618530,684.690247 749.618530,701.437134 
	C753.962341,701.437134 757.494629,701.437134 761.380981,701.437134 
	C761.380981,691.056946 761.380981,680.779175 761.380432,669.500854 
M899.689697,684.498901 
	C899.689697,689.921936 899.689697,695.344971 899.689697,700.909119 
	C904.210938,701.179993 908.077698,701.411682 912.262939,701.662415 
	C912.262939,694.467285 912.279968,687.507080 912.259583,680.547058 
	C912.211853,664.235352 912.206726,647.922668 911.968201,631.613647 
	C911.949829,630.359497 910.381348,628.242188 909.279785,628.060120 
	C906.276489,627.563660 903.137390,627.889465 899.689575,627.889465 
	C899.689575,646.918030 899.689575,665.208557 899.689697,684.498901 
M672.005920,759.304749 
	C669.548340,753.339783 667.264587,747.294434 664.560120,741.443665 
	C663.195374,738.491333 661.316650,735.455017 656.833130,736.992981 
	C656.833130,751.333191 656.833130,765.577759 656.833130,780.147217 
	C658.376770,780.147217 659.591614,780.147217 661.653992,780.147217 
	C661.653992,770.233459 661.653992,760.575500 661.653992,750.917480 
	C662.174805,750.782288 662.695618,750.647095 663.216431,750.511902 
	C664.035095,751.903687 665.011292,753.227539 665.645996,754.698669 
	C668.918457,762.283691 672.030762,769.938965 675.397034,777.481323 
	C675.905212,778.619873 677.427979,779.935547 678.532043,779.982727 
	C679.446533,780.021729 680.849487,778.484192 681.325562,777.347595 
	C684.832214,768.977173 688.135010,760.521545 691.580444,752.124878 
	C691.962158,751.194580 692.836792,750.466553 693.482849,749.644714 
	C693.846008,749.727600 694.209106,749.810547 694.572266,749.893494 
	C694.572266,759.912964 694.572266,769.932373 694.572266,779.857300 
	C698.149048,781.015503 699.593445,780.399658 699.534668,776.996155 
	C699.402283,769.333618 699.493469,761.667114 699.493591,754.002258 
	C699.493652,748.251282 699.493591,742.500305 699.493591,736.848694 
	C693.789185,736.513489 693.877258,736.676636 691.838196,741.514038 
	C687.606689,751.552490 683.143982,761.493530 678.107056,773.004028 
	C675.798828,767.863525 674.038513,763.943237 672.005920,759.304749 
M793.690369,629.030029 
	C790.235840,628.511414 786.781311,627.992859 783.300842,627.470337 
	C783.029175,628.820923 782.853149,629.288208 782.852905,629.755615 
	C782.839539,653.713379 782.841125,677.671143 782.841125,701.256104 
	C786.667114,701.256104 790.192383,701.256104 794.075745,701.256104 
	C794.075745,677.104858 794.075745,653.495911 793.690369,629.030029 
M219.753922,774.956604 
	C216.327148,774.822510 212.679245,775.393372 209.521133,774.402771 
	C203.542038,772.527161 199.962631,766.610474 199.603912,760.868530 
	C199.050079,752.003540 201.959854,745.164185 210.375671,741.576538 
	C216.825012,738.827148 221.958130,741.620911 226.272186,746.436279 
	C228.422211,748.836243 230.731247,749.672180 233.563629,747.560669 
	C229.522217,740.003906 220.669144,734.226746 214.134201,735.468506 
	C205.156891,737.174438 197.082581,740.570923 195.306549,750.979065 
	C194.622528,754.987732 194.528336,759.200317 194.870132,763.260742 
	C195.769516,773.944580 205.457809,781.211182 217.053558,780.713806 
	C225.068741,780.370117 236.118866,771.347290 235.273178,760.239319 
	C235.052948,757.346313 234.167374,755.990295 231.122482,756.086548 
	C226.631180,756.228577 222.125183,756.276306 217.638214,756.076782 
	C213.498276,755.892700 211.597656,757.339417 212.725739,761.926880 
	C218.273499,761.926880 223.897461,761.926880 229.493515,761.926880 
	C229.946640,767.659424 226.449417,772.402161 219.753922,774.956604 
M779.877258,750.501953 
	C779.877258,745.066711 779.877258,739.631531 779.877258,733.822205 
	C777.590759,733.975464 776.025330,734.080383 773.741760,734.233459 
	C773.741760,740.071228 773.741760,745.530762 773.741760,751.658630 
	C767.063599,744.961487 757.928894,744.022644 751.817688,748.730164 
	C745.716248,753.429932 744.007324,766.625305 749.216309,774.102234 
	C751.111328,776.822388 754.582336,778.873718 757.765625,780.174622 
	C763.719177,782.607849 769.180237,780.876038 772.640442,776.836426 
	C774.510376,778.482971 775.864197,779.675049 777.218079,780.867065 
	C778.104492,779.236816 779.702881,777.629761 779.756836,775.972412 
	C780.022095,767.822754 779.877258,759.659729 779.877258,750.501953 
M363.750854,746.132568 
	C362.198547,747.073425 360.646240,748.014343 359.039398,748.988281 
	C355.675415,747.905151 351.650024,745.687866 347.546356,745.531982 
	C342.916931,745.356201 338.730591,747.897034 335.802399,751.911865 
	C330.719391,758.880981 332.597015,770.075623 340.244446,778.022339 
	C344.583710,782.531433 350.827026,781.939453 358.643707,776.731445 
	C360.495514,778.232117 362.087219,779.522034 363.678894,780.811951 
	C364.738495,778.856262 366.627716,776.936035 366.712921,774.938843 
	C367.066345,766.651978 366.975403,758.339600 366.781006,750.042725 
	C366.750122,748.724731 365.354340,747.438599 363.750854,746.132568 
M886.891968,767.034058 
	C888.365234,778.469177 901.228699,786.653503 913.800659,776.102539 
	C915.676514,780.560364 915.676514,780.560364 919.112915,779.831848 
	C919.112915,775.248657 919.038147,770.604614 919.133606,765.964050 
	C919.232544,761.158325 919.663269,756.353699 919.599854,751.553223 
	C919.577087,749.831726 918.536499,748.123779 917.960571,746.409607 
	C916.311523,747.392151 914.662415,748.374695 912.861328,749.447876 
	C906.463867,743.671387 895.892517,744.673828 889.998352,751.506958 
	C886.139465,755.980652 887.102966,761.100525 886.891968,767.034058 
M257.549164,765.120850 
	C262.612579,765.120850 267.676025,765.120850 272.881378,765.120850 
	C269.958771,749.448853 266.429077,745.498169 256.357117,745.879944 
	C247.707703,746.207764 242.068939,751.729919 240.874725,761.042053 
	C239.852417,769.013794 244.878632,777.677124 251.748672,779.784546 
	C261.148590,782.668091 267.534882,779.571716 271.495575,769.544006 
	C269.150970,770.432129 266.857483,771.503235 265.026367,773.103577 
	C259.852661,777.624878 253.936249,778.013794 249.096115,773.221924 
	C247.559784,771.701050 247.396057,768.793701 246.604248,766.520813 
	C248.260498,766.053467 249.891617,765.409668 251.580170,765.169189 
	C253.212463,764.936768 254.903915,765.119690 257.549164,765.120850 
M797.882324,765.116333 
	C804.817688,765.116333 811.753052,765.116333 819.108215,765.116333 
	C819.108215,763.355835 819.124878,762.070679 819.105469,760.786133 
	C819.003662,754.047424 816.090027,749.205261 811.009155,747.311157 
	C803.460938,744.497314 797.040649,745.689331 792.373474,750.771362 
	C787.037476,756.581482 786.331360,768.430420 790.934631,774.914673 
	C796.472107,782.715149 812.574219,782.026978 817.230957,773.704529 
	C817.709351,772.849548 817.233521,771.460754 817.200439,770.319580 
	C816.000305,770.451111 814.638245,770.277344 813.647217,770.803101 
	C812.719421,771.295410 812.271057,772.615173 811.463135,773.421997 
	C806.227417,778.650452 796.995239,776.794250 794.038025,770.018188 
	C792.671143,766.885986 793.411743,765.228149 797.882324,765.116333 
M605.765320,779.256287 
	C612.922058,780.797363 619.941833,781.719788 625.360962,773.726074 
	C625.793640,776.756470 626.059265,778.617126 626.324951,780.477783 
	C626.747742,780.716248 627.170593,780.954773 627.593384,781.193237 
	C628.432129,780.048218 629.977478,778.916260 629.998901,777.756104 
	C630.189209,767.470154 630.109558,757.179199 630.109558,747.046509 
	C625.421936,744.821167 625.482239,748.487244 624.768127,751.250244 
	C623.877808,750.528870 623.360291,750.147644 622.885498,749.719177 
	C615.696106,743.230896 605.491089,744.556763 600.224670,752.669128 
	C595.029602,760.671570 597.056274,771.759338 605.765320,779.256287 
M855.814026,776.853516 
	C855.813416,771.027649 855.812378,765.201782 855.812317,759.375916 
	C855.812317,754.224609 859.315308,750.608521 864.577454,750.326477 
	C868.949951,750.092163 873.315552,753.490662 873.645386,758.145081 
	C874.078857,764.261597 873.738831,770.430420 874.072327,776.558228 
	C874.150879,778.001282 875.593018,779.370178 876.407837,780.773132 
	C877.543762,779.579956 879.585022,778.441223 879.660706,777.184143 
	C880.010132,771.379395 880.245972,765.496765 879.647278,759.732910 
	C879.293030,756.322937 878.002075,752.539185 875.914856,749.878601 
	C871.622681,744.407471 864.008850,744.285278 856.166382,748.709839 
	C854.829651,747.515991 853.492920,746.322205 851.175598,744.252563 
	C850.366760,746.977905 849.314514,748.953857 849.268066,750.953125 
	C849.075073,759.271362 849.099609,767.598267 849.258667,775.917908 
	C849.289185,777.516296 850.284546,779.096252 850.834839,780.684753 
	C852.481750,779.695740 854.128662,778.706726 855.814026,776.853516 
M709.008484,754.895081 
	C708.741943,759.965942 707.676147,765.161377 708.441101,770.071533 
	C709.157715,774.671265 712.497803,778.473145 717.370850,779.861755 
	C730.417786,783.579468 738.544312,778.253845 740.489563,764.912537 
	C741.914429,755.139587 736.785400,747.903015 727.195984,745.846680 
	C719.053955,744.100769 713.968750,748.733948 709.008484,754.895081 
M436.534607,776.049622 
	C448.124481,784.398376 465.565094,779.393860 467.767517,768.181458 
	C463.332977,767.879272 463.332977,767.879272 458.616211,772.471008 
	C454.391937,776.583557 447.154358,777.184937 442.098358,774.210510 
	C434.938965,769.998596 433.545898,763.564880 434.017090,755.936401 
	C434.432251,749.214294 438.922302,742.741394 445.458557,740.586426 
	C450.457977,738.937988 457.795227,741.204956 461.199066,746.329468 
	C463.235870,749.395935 465.163818,749.519958 468.048401,748.637024 
	C464.900970,735.244263 444.379272,733.221375 436.003601,740.936340 
	C427.293640,748.959229 426.041870,765.976257 436.534607,776.049622 
M382.886963,747.003723 
	C378.369110,749.066223 375.745392,752.658691 374.413025,757.350769 
	C372.359894,764.581360 374.679413,774.150818 379.369873,777.576843 
	C384.251892,781.142822 394.827087,781.271484 400.187958,777.707214 
	C406.678192,773.391968 407.776001,765.899170 405.192139,756.007629 
	C403.043579,747.782654 394.957397,743.710144 382.886963,747.003723 
M587.769226,749.654602 
	C582.617676,745.231812 571.910156,744.434570 566.835815,748.096069 
	C560.956177,752.338745 558.674744,762.811646 561.774170,771.331787 
	C564.086487,777.687927 570.585876,781.312500 578.281189,780.537476 
	C585.698059,779.790405 589.584961,776.375732 590.885376,767.885559 
	C588.082275,769.849304 586.023193,770.819946 584.600708,772.373413 
	C579.550598,777.888855 571.770813,777.916626 568.144348,771.671387 
	C566.432922,768.723999 565.882568,764.829163 565.723022,761.321838 
	C565.515503,756.762573 567.663025,752.763611 571.938599,750.879761 
	C576.398010,748.914917 582.147156,751.018494 585.305054,754.532043 
	C586.348572,755.693054 588.294067,756.043396 589.827087,756.764343 
	C590.117615,756.306641 590.408081,755.848877 590.698547,755.391113 
	C589.891846,753.652710 589.085144,751.914307 587.769226,749.654602 
M507.912964,759.512573 
	C507.912964,766.286865 507.912964,773.061096 507.912964,779.740173 
	C512.118652,780.835388 513.545349,779.272278 513.422424,775.520874 
	C513.242798,770.035767 513.300354,764.543152 513.229980,759.054077 
	C513.174316,754.715027 517.128967,750.434326 521.325684,750.105652 
	C529.209106,749.488342 531.954956,751.952393 532.693970,761.303589 
	C533.175720,767.400146 532.784729,773.565735 532.784729,779.979858 
	C534.345459,779.979858 535.575378,779.979858 537.126160,779.979858 
	C537.126160,772.724915 537.484924,765.735474 537.010986,758.802979 
	C536.641602,753.400085 534.785767,748.602966 528.599426,746.688599 
	C523.160095,745.005371 518.636108,746.223755 514.711975,749.344116 
	C512.864502,748.317078 511.212067,747.398499 508.915833,746.121948 
	C508.519440,751.004944 508.214386,754.762817 507.912964,759.512573 
M293.001160,749.308594 
	C296.048340,751.716064 299.095551,754.123474 302.142731,756.530945 
	C301.981262,748.201904 296.428314,744.507202 288.724823,745.967712 
	C282.826111,747.086182 280.038513,749.912964 279.892609,754.924255 
	C279.727936,760.578735 281.495728,762.426514 288.478302,764.151550 
	C291.163269,764.814880 293.924469,765.416138 296.402283,766.576599 
	C297.819946,767.240540 299.576630,768.917419 299.662170,770.236755 
	C299.762787,771.787659 298.610260,773.943298 297.314087,774.964966 
	C293.118317,778.271912 289.410797,777.591187 285.538055,773.814392 
	C283.948181,772.264038 281.737579,771.350159 279.809326,770.146790 
	C279.414124,770.628967 279.018921,771.111145 278.623718,771.593262 
	C279.967072,773.550232 280.974030,775.903076 282.719696,777.386597 
	C287.172089,781.170349 292.782501,780.885986 297.848206,779.646118 
	C301.788971,778.681641 304.351898,775.347778 304.122467,770.633301 
	C303.903503,766.134644 301.530670,763.770325 297.306488,762.819031 
	C294.739624,762.241028 291.941711,761.930054 289.753815,760.640320 
	C287.538300,759.334412 284.834900,757.160950 284.465607,755.004395 
	C284.212433,753.525818 287.490265,751.315857 289.392426,749.666687 
	C290.020569,749.122009 291.282318,749.308167 293.001160,749.308594 
M413.646790,618.102295 
	C416.302185,617.472412 419.330994,617.444458 421.530640,616.079956 
	C425.396820,613.681519 426.459564,607.568604 424.391937,603.637695 
	C421.574615,598.281494 416.331207,596.204895 409.994659,597.935730 
	C406.410187,598.914917 402.678711,604.614929 402.923645,608.737122 
	C403.198547,613.363525 407.460693,617.409546 413.646790,618.102295 
M313.909149,767.528687 
	C314.479614,778.913086 316.407471,780.239563 323.900574,780.168030 
	C327.461060,780.134033 327.821472,778.776245 326.294952,776.575378 
	C323.662323,775.676880 319.559570,774.549500 319.427704,773.068542 
	C318.758575,765.553223 319.119446,757.946228 319.119446,750.326172 
	C322.273804,750.141235 324.672028,750.000610 327.070251,749.860046 
	C327.193359,749.239807 327.316467,748.619629 327.439575,747.999451 
	C324.857697,747.380676 322.275818,746.761902 319.359009,746.062866 
	C319.184784,743.519043 318.997986,740.791992 318.813354,738.096252 
	C317.059448,738.096252 315.645782,738.096252 313.735077,738.096252 
	C314.396881,742.675110 314.371674,746.916199 309.984009,749.786560 
	C311.530060,750.031921 313.076111,750.277283 315.212311,750.616272 
	C314.757751,756.138489 314.326324,761.379883 313.909149,767.528687 
M498.813446,762.498779 
	C498.813446,757.214905 498.813446,751.931030 498.813446,746.761108 
	C493.739075,745.222229 491.940765,746.666504 492.119568,751.588745 
	C492.421906,759.909424 492.069427,768.253113 492.325470,776.576965 
	C492.369476,778.006287 494.067657,779.384705 495.001678,780.786682 
	C496.268921,779.355469 498.443665,778.032166 498.629211,776.472229 
	C499.137390,772.199890 498.808716,767.828003 498.813446,762.498779 
M898.433960,609.791626 
	C900.577637,614.989075 905.218079,617.048645 909.954407,614.904846 
	C913.655945,613.229370 915.537842,607.198914 913.147827,603.453125 
	C911.235046,600.455200 908.478333,598.430603 904.490356,599.455811 
	C899.466370,600.747314 897.634033,604.118225 898.433960,609.791626 
M780.852295,611.335571 
	C782.891235,615.557007 786.708069,616.601074 790.427246,615.044128 
	C792.726135,614.081604 794.852783,611.256104 795.765991,608.789185 
	C797.011902,605.423584 795.418091,601.733337 792.149780,600.508240 
	C789.591675,599.549316 785.927002,599.710083 783.425720,600.848816 
	C779.371216,602.694763 780.229858,606.928284 780.852295,611.335571 
M550.676697,780.345154 
	C551.153687,779.639648 552.040222,778.937561 552.046143,778.228088 
	C552.135010,767.631409 552.107544,757.033752 552.107544,746.065491 
	C550.089844,746.471252 548.430725,746.804871 546.621948,747.168640 
	C546.621948,757.092102 546.492676,766.718018 546.767395,776.332458 
	C546.806641,777.706177 548.800598,779.024048 550.676697,780.345154 
M482.145905,744.519775 
	C482.145752,742.021240 482.028717,739.515930 482.174774,737.025940 
	C482.360168,733.865173 480.919373,733.351868 478.118347,734.281921 
	C478.118347,749.443604 478.118347,764.531860 478.118347,779.779602 
	C481.294250,780.708069 482.243866,779.621460 482.200256,776.497009 
	C482.056122,766.171875 482.145935,755.843384 482.145905,744.519775 
M832.085388,767.521057 
	C832.083313,765.031250 832.068420,762.541443 832.081970,760.051697 
	C832.111084,754.685059 834.424011,751.769714 839.762024,751.213623 
	C843.598511,750.813904 843.294189,748.692688 842.635803,744.835144 
	C838.955261,746.996155 835.833130,748.829285 833.525513,750.184204 
	C831.879700,748.829285 830.449158,747.651611 828.116943,745.731628 
	C828.116943,758.171570 828.116943,768.901306 828.116943,779.652527 
	C830.901489,780.612854 832.348389,780.194885 832.127686,776.967773 
	C831.935608,774.159119 832.086487,771.327026 832.085388,767.521057 
M356.108124,738.740784 
	C354.274658,737.894958 352.515320,736.720093 350.589111,736.286194 
	C348.163513,735.739746 345.271759,735.007141 343.210541,735.865784 
	C341.757721,736.471008 341.352844,739.591736 340.480103,741.589355 
	C340.851654,741.848267 341.223236,742.107117 341.594788,742.365967 
	C344.015839,738.595825 346.390076,738.447510 350.325409,740.535645 
	C357.338470,744.257019 360.322662,742.406372 360.568573,734.091797 
	C358.816071,735.989685 357.762268,737.130859 356.108124,738.740784 
M492.851349,736.352539 
	C491.561554,737.957275 490.271759,739.562012 488.981995,741.166748 
	C502.017975,737.339600 502.891571,736.527832 500.524200,731.600037 
	C498.166870,733.111572 495.850098,734.597107 492.851349,736.352539 
M551.887634,733.504944 
	C550.158142,731.611633 548.085388,731.348816 547.251709,733.873657 
	C546.653015,735.686584 547.355225,738.009216 547.846252,740.014099 
	C547.918396,740.308899 550.532043,740.604919 551.114441,740.031494 
	C552.713684,738.456909 555.337402,736.706787 551.887634,733.504944 
z"/>
<path fill="#839DB6" opacity="1.000000" stroke="none" 
	d="
M464.894714,443.003448 
	C459.341278,431.964294 453.926636,421.274689 447.863617,409.305023 
	C444.015472,416.324860 440.979431,421.778564 438.024567,427.275879 
	C434.719666,433.424408 431.291962,439.518555 428.282257,445.810730 
	C425.489075,451.650116 420.820435,454.062561 414.739380,454.072784 
	C382.910858,454.126251 351.081696,454.161407 319.254211,453.965210 
	C316.312225,453.947083 312.904907,452.892303 310.586639,451.154388 
	C308.538330,449.618896 306.314117,446.245514 306.645599,444.059357 
	C307.250458,440.070038 310.296265,436.979309 314.964508,436.922363 
	C322.795502,436.826874 330.628540,436.898743 338.460724,436.899170 
	C362.290558,436.900543 386.121002,436.818573 409.949677,436.986420 
	C413.785767,437.013428 415.975891,435.857147 417.770752,432.409149 
	C424.670868,419.153839 431.746246,405.985291 439.024567,392.934021 
	C441.218262,389.000366 443.659546,383.254761 448.701813,384.360474 
	C452.194000,385.126251 455.670563,389.621094 457.591156,393.271912 
	C466.561371,410.323151 474.984161,427.662354 483.617920,444.890900 
	C484.328339,446.308502 485.153687,447.668518 485.925659,449.055267 
	C486.421814,449.062866 486.917969,449.070465 487.414093,449.078064 
	C488.582733,444.146210 489.995850,439.257721 490.880005,434.275330 
	C496.249298,404.017670 501.571045,373.751129 506.764130,343.462738 
	C510.927917,319.177948 514.810486,294.844940 518.972473,270.559814 
	C520.745911,260.212189 523.014343,249.950073 524.856201,239.613190 
	C525.696289,234.898392 528.961243,232.927231 532.965881,232.182922 
	C535.847473,231.647354 540.579102,236.785355 541.025391,240.523529 
	C542.450623,252.460907 543.678467,264.421997 545.124023,276.356750 
	C547.004333,291.881470 549.094788,307.380829 550.954651,322.907898 
	C552.445007,335.349731 553.658997,347.824493 555.119324,360.270142 
	C556.617310,373.037628 558.292419,385.784271 559.839111,398.546234 
	C560.970520,407.880341 562.002625,417.226440 563.109680,426.563568 
	C564.332275,436.875122 565.625610,447.178406 566.822021,457.492950 
	C567.960754,467.309540 569.031677,477.134064 570.099976,486.958649 
	C571.134277,496.470276 572.065186,505.993927 573.214417,515.491394 
	C573.364319,516.730713 574.543213,517.845459 576.055969,520.370911 
	C577.877502,510.978760 579.254578,503.148132 580.931335,495.382202 
	C584.605896,478.362854 588.353516,461.358215 592.242371,444.386749 
	C593.485535,438.961365 596.560974,436.941284 602.381287,436.900848 
	C613.677551,436.822388 613.740784,436.843323 617.355713,425.917664 
	C623.935913,406.030121 630.428406,386.113586 636.972473,366.214081 
	C637.539551,364.489655 638.150146,362.773071 638.858459,361.102936 
	C640.365295,357.549957 642.416809,354.501984 646.889832,354.934143 
	C651.202393,355.350800 653.645325,358.208191 655.012634,362.047546 
	C658.893616,372.945648 662.676025,383.878815 666.551392,394.778931 
	C671.477661,408.634796 676.457031,422.471680 681.621033,436.896393 
	C683.248413,436.896393 685.029419,436.896301 686.810486,436.896423 
	C723.638428,436.898529 760.466370,436.897919 797.294312,436.905334 
	C803.664612,436.906586 806.767090,439.252594 807.101318,444.268982 
	C807.462952,449.696594 805.282043,452.133972 798.814270,453.110382 
	C795.395691,453.626495 791.923401,454.052338 788.474426,454.059021 
	C753.146362,454.127502 717.818176,454.102539 682.489990,454.101379 
	C673.139160,454.101044 670.029968,451.632599 666.916565,442.712982 
	C660.985596,425.720825 654.857971,408.797089 648.745544,391.868927 
	C648.351135,390.776428 647.389893,389.888580 645.998108,387.927277 
	C642.800537,398.448090 640.039490,407.855103 637.075623,417.197784 
	C633.826965,427.438019 630.598389,437.694000 626.938477,447.789948 
	C625.398987,452.036621 621.426941,453.821350 617.001465,454.048615 
	C613.687256,454.218842 610.357361,454.082214 606.351624,454.082214 
	C604.597595,461.933319 602.748169,469.714355 601.130005,477.543152 
	C595.067017,506.877441 589.090027,536.229492 583.043457,565.567200 
	C582.578918,567.821167 581.784973,570.005310 581.210632,572.238953 
	C579.671509,578.224792 577.472839,580.273132 572.715088,580.079407 
	C568.622986,579.912720 564.495789,575.931396 563.964783,571.303223 
	C562.218567,556.083618 560.725830,540.833679 558.853516,525.630127 
	C556.720215,508.307037 554.149719,491.037689 552.023376,473.713776 
	C550.438049,460.797913 549.388245,447.816864 547.861206,434.893036 
	C546.062561,419.669983 543.932678,404.486237 542.088074,389.268280 
	C540.897034,379.441772 540.042175,369.574829 538.889404,359.743256 
	C537.392944,346.980927 535.689453,334.242889 534.197144,321.480103 
	C533.493042,315.458618 533.073242,309.403931 532.370361,301.665375 
	C530.687500,303.906433 529.350525,304.894257 529.142883,306.079926 
	C524.743896,331.193787 520.527832,356.339630 516.161011,381.459229 
	C510.889954,411.780457 505.521606,442.084808 500.164734,472.391083 
	C499.683258,475.114990 499.479279,478.050385 498.276917,480.452332 
	C495.306732,486.385803 488.289368,487.024628 484.732544,481.435181 
	C480.821228,475.288635 477.755157,468.597961 474.416138,462.095459 
	C471.224884,455.880676 468.156128,449.602997 464.894714,443.003448 
z"/>
<path fill="#6E6B6C" opacity="1.000000" stroke="none" 
	d="
M166.441376,674.578369 
	C167.535065,674.794495 169.084137,674.899963 169.278488,674.436890 
	C178.164444,653.263916 186.972504,632.057861 195.661026,610.802979 
	C196.727158,608.194885 197.639771,606.815308 200.970993,607.227844 
	C205.398636,607.776184 209.989395,607.699402 214.433868,607.205444 
	C218.143127,606.793274 218.710983,608.419312 218.707901,611.399170 
	C218.676941,641.215515 218.689102,671.031799 218.689102,701.619080 
	C212.927902,701.619080 207.326019,701.822083 201.768692,701.415771 
	C200.861389,701.349426 199.470352,698.600159 199.454178,697.078735 
	C199.285858,681.253784 199.353241,665.426392 199.355179,649.599670 
	C199.355392,647.829956 199.355209,646.060303 199.355209,644.290588 
	C198.923203,644.184082 198.491180,644.077515 198.059174,643.970947 
	C195.627167,649.929810 193.146088,655.869141 190.773529,661.851501 
	C186.093994,673.650879 181.470474,685.472595 176.833130,697.288635 
	C175.665558,700.263672 174.056000,701.883606 170.311295,701.775940 
	C159.550247,701.466309 159.791580,701.590942 155.568710,690.541504 
	C149.819534,675.498413 143.648163,660.616699 137.646484,645.670288 
	C137.429520,645.129883 137.092392,644.637756 135.800552,644.305969 
	C135.800552,663.434082 135.800552,682.562195 135.800552,701.647766 
	C130.515366,701.647766 125.880157,701.483582 121.263374,701.704529 
	C118.089134,701.856506 117.292343,700.538330 117.299835,697.602783 
	C117.373413,668.781372 117.367798,639.959595 117.312126,611.138123 
	C117.306870,608.415161 118.131142,607.005249 121.037201,607.332031 
	C121.859886,607.424561 122.735626,607.501465 123.529488,607.325623 
	C135.006073,604.784729 140.843307,609.946777 144.227921,620.747070 
	C147.574051,631.424622 152.442947,641.630493 156.746002,652.000854 
	C159.831787,659.437561 163.085815,666.804443 166.441376,674.578369 
z"/>
<path fill="#6A6768" opacity="1.000000" stroke="none" 
	d="
M388.095062,632.078186 
	C388.277649,647.816162 388.538177,663.064514 388.608124,678.313843 
	C388.639282,685.112366 388.257568,691.912048 388.122650,698.712463 
	C388.067230,701.505188 387.387115,702.246338 384.180664,701.655640 
	C380.012268,700.887695 375.595490,701.467957 371.128967,701.467957 
	C370.913086,698.770386 370.684204,695.910400 370.332153,691.511658 
	C364.745239,698.670471 358.291962,701.383911 350.896973,702.772888 
	C338.264984,705.145508 321.756531,696.557983 316.880676,684.624695 
	C311.140594,670.576416 310.758057,656.605286 318.137054,643.068176 
	C328.108337,624.775391 354.299500,621.644470 367.248840,635.077026 
	C367.574982,635.415283 368.005829,635.652649 369.261230,636.587280 
	C369.261230,625.157593 369.261230,614.410522 369.261230,603.284729 
	C375.592896,602.952454 381.146027,602.507996 386.693665,602.568237 
	C387.368652,602.575562 388.579559,605.298584 388.579742,606.763123 
	C388.580780,615.038391 388.288055,623.313721 388.095062,632.078186 
M332.320007,659.208801 
	C332.217560,662.019348 331.835388,664.852295 332.059021,667.636658 
	C333.317657,683.305481 347.492432,689.830261 358.845154,684.178284 
	C370.611115,678.320557 374.511932,658.384338 362.855957,648.369019 
	C357.399780,643.680847 351.061920,641.617554 344.312897,644.440613 
	C338.266388,646.969788 333.511078,651.270569 332.320007,659.208801 
z"/>
<path fill="#6B6768" opacity="1.000000" stroke="none" 
	d="
M591.806274,684.696289 
	C591.880066,689.259338 591.816040,693.362915 592.075073,697.445923 
	C592.277588,700.636719 591.906738,702.572815 587.857605,702.026978 
	C583.453552,701.433350 578.966675,701.454590 574.355469,701.198792 
	C573.870789,698.361633 573.434753,695.809204 573.159180,694.196045 
	C567.897156,696.815247 562.840576,700.432861 557.218994,701.932617 
	C536.867554,707.362305 517.577454,692.473145 516.724670,670.278198 
	C516.291504,659.004395 517.297363,648.441956 524.059509,639.150696 
	C533.833435,625.721313 552.448181,624.042419 565.270325,630.434021 
	C566.964172,631.278320 568.090942,633.206848 569.597046,634.496948 
	C570.932739,635.641113 572.431091,636.595581 573.953491,637.703491 
	C573.953491,634.108093 573.953491,631.367493 573.953491,627.897095 
	C579.222778,627.897095 584.188660,627.619141 589.075500,628.117065 
	C590.131653,628.224670 591.669922,631.116150 591.687988,632.739868 
	C591.879089,649.900818 591.807129,667.064758 591.806274,684.696289 
M571.155334,654.627441 
	C565.407959,641.950378 549.936768,641.168884 542.432983,647.538635 
	C536.022156,652.980530 535.464478,660.138489 535.900024,667.736450 
	C536.436279,677.093384 542.882019,685.003357 550.886230,685.978943 
	C560.710938,687.176453 569.381042,682.294800 571.714783,672.646484 
	C573.040161,667.167236 571.784241,661.063538 571.155334,654.627441 
z"/>
<path fill="#6B6768" opacity="1.000000" stroke="none" 
	d="
M302.974060,655.188110 
	C303.285828,659.252563 303.488037,662.896423 303.717499,666.538574 
	C303.913177,669.644592 303.145477,670.501343 299.463165,670.406555 
	C283.017761,669.983154 266.555267,670.222534 250.125046,670.222534 
	C249.661057,676.938782 254.248962,683.924561 260.504150,686.396179 
	C267.775421,689.269287 276.014954,687.820801 280.509888,682.086060 
	C282.685852,679.309937 284.876862,678.692871 288.033875,678.843628 
	C292.510773,679.057495 297.005524,678.897949 301.496857,678.897949 
	C301.151306,688.239868 287.333496,701.004028 275.945709,702.561707 
	C261.039368,704.600586 244.123459,699.076721 237.392197,687.571594 
	C228.079361,671.654175 228.856598,643.342468 247.377106,632.442261 
	C265.598022,621.718506 297.615295,625.133423 302.974060,655.188110 
M263.563049,642.978394 
	C255.352234,644.347961 251.745819,649.969788 249.929810,657.732300 
	C261.695526,657.732300 273.214569,657.732300 284.753693,657.732300 
	C283.745483,647.357300 277.491150,641.399475 263.563049,642.978394 
z"/>
<path fill="#6B6869" opacity="1.000000" stroke="none" 
	d="
M441.059570,684.870972 
	C436.470001,673.609741 435.330170,662.453003 438.891754,651.090637 
	C444.898956,631.926270 461.350067,625.262024 479.504639,627.443848 
	C495.831207,629.405945 504.700317,641.125244 506.981262,653.549194 
	C501.325745,653.549194 495.777527,653.706970 490.253571,653.411438 
	C489.193451,653.354736 487.875977,651.689392 487.278107,650.471313 
	C483.847290,643.481689 477.636292,642.085693 470.892273,642.706482 
	C463.921082,643.348145 458.958496,647.511658 456.721008,654.084229 
	C453.765808,662.765259 454.343506,671.406799 458.638336,679.662415 
	C462.411804,686.915894 474.993469,689.877930 481.822601,684.851562 
	C484.092407,683.180969 485.684448,680.611389 487.711029,678.577026 
	C488.456909,677.828186 489.531494,677.028137 490.509247,676.954346 
	C494.814697,676.629333 499.138733,676.470581 503.457611,676.434448 
	C505.928223,676.413818 507.329529,676.786194 506.344879,680.287903 
	C501.804443,696.434814 486.447571,704.170471 470.919556,703.033936 
	C458.125122,702.097473 447.530701,697.135559 441.059570,684.870972 
z"/>
<path fill="#686566" opacity="1.000000" stroke="none" 
	d="
M660.383301,676.382324 
	C672.417847,694.826721 696.844116,697.773499 712.232178,682.817932 
	C712.827942,682.238892 713.827820,681.781433 713.999695,681.104797 
	C716.522034,671.175537 724.236267,674.149109 731.279297,674.053467 
	C728.246826,684.604614 721.912659,692.481995 712.669800,696.916565 
	C696.348389,704.747375 679.549622,704.895081 663.607788,695.505554 
	C644.344238,684.159546 639.086121,660.153870 644.775024,639.579102 
	C649.570984,622.234070 660.980164,611.419678 678.424194,607.565308 
	C697.031250,603.454163 719.731506,609.788818 729.636841,629.744934 
	C730.403809,631.290100 730.743896,633.047180 731.410767,635.101501 
	C727.349915,635.101501 723.888489,635.421204 720.536743,634.953857 
	C719.069519,634.749329 717.279175,633.215149 716.565186,631.811768 
	C708.190063,615.349426 685.669006,613.501099 671.914734,620.736450 
	C659.651489,627.187317 651.190552,646.356934 655.745361,664.604431 
	C656.731995,668.556946 658.648804,672.277283 660.383301,676.382324 
z"/>
<path fill="#6F6B6C" opacity="1.000000" stroke="none" 
	d="
M948.937378,700.091797 
	C931.950439,691.745728 926.708923,675.464050 928.999695,657.760803 
	C930.069275,649.495056 933.555359,642.578979 939.321045,636.310608 
	C947.992188,626.883606 965.905457,624.994019 977.418396,629.125732 
	C986.225891,632.286499 992.913086,637.788391 996.012451,646.902344 
	C996.549561,648.481812 996.388123,650.298889 996.558472,652.103577 
	C993.197693,651.935913 990.439636,651.984070 987.749023,651.581604 
	C986.504333,651.395325 984.880493,650.626038 984.295837,649.618042 
	C976.826233,636.739746 967.690857,635.833923 957.994995,638.012756 
	C947.593628,640.350098 942.434326,647.071899 940.802368,660.569031 
	C939.691895,669.752502 941.351013,678.541687 948.001648,685.982544 
	C955.852112,694.765747 975.348633,696.232483 983.743835,681.554626 
	C985.881165,677.817810 987.945251,677.087280 991.438843,677.276489 
	C993.081543,677.365479 994.733032,677.291809 996.989380,677.291809 
	C996.338257,685.748779 992.199646,691.949707 986.059875,696.532898 
	C974.695251,705.016418 962.099976,704.578369 948.937378,700.091797 
z"/>
<path fill="#676364" opacity="1.000000" stroke="none" 
	d="
M826.104004,673.008484 
	C826.104919,682.482361 826.104919,691.458008 826.104919,700.761230 
	C822.430359,700.761230 819.018555,700.761230 815.222900,700.761230 
	C815.222900,676.708679 815.222900,652.511475 815.222900,628.158325 
	C818.686890,628.158325 822.869812,626.991516 825.300659,628.552734 
	C827.031860,629.664734 826.405212,634.447693 826.869751,637.879761 
	C827.493286,637.663269 828.733948,637.631226 829.145325,637.030945 
	C838.137939,623.907837 861.080383,624.634216 870.891235,634.585938 
	C874.962158,638.715454 878.419922,645.259705 878.764465,650.912537 
	C879.789856,667.735779 879.132141,684.661682 879.132141,702.244934 
	C875.929443,701.875061 872.142090,701.437683 867.506653,700.902344 
	C868.001526,695.838196 868.890137,690.980835 868.862122,686.128723 
	C868.807617,676.702026 868.434082,667.264709 867.784058,657.860046 
	C867.531616,654.208069 866.518433,650.505920 865.250549,647.046936 
	C861.982361,638.130493 849.647034,635.839111 842.907227,637.706604 
	C832.863159,640.489868 827.236206,646.495117 827.080322,657.253052 
	C827.006592,662.342468 826.444092,667.424744 826.104004,673.008484 
z"/>
<path fill="#676364" opacity="1.000000" stroke="none" 
	d="
M627.109985,620.000977 
	C627.110229,647.620667 627.110229,674.740417 627.110229,702.015076 
	C621.594238,702.015076 616.460571,702.237915 611.380371,701.815918 
	C610.431885,701.737122 608.995361,699.081482 608.975281,697.599060 
	C608.795532,684.272461 608.889526,670.942322 608.888306,657.613220 
	C608.887024,643.777954 608.868469,629.942627 608.859131,616.107361 
	C608.856262,611.818298 608.858704,607.529236 608.858704,603.077454 
	C615.039612,603.077454 620.807129,603.077454 627.109802,603.077454 
	C627.109802,608.620300 627.109802,614.060730 627.109985,620.000977 
z"/>
<path fill="#686566" opacity="1.000000" stroke="none" 
	d="
M411.961670,701.365112 
	C409.825653,701.364929 408.174469,701.364929 406.072876,701.364929 
	C406.072876,676.788818 406.072876,652.480591 406.072876,627.947144 
	C411.752960,627.947144 417.155640,627.947144 422.970093,627.947144 
	C422.970093,652.692444 422.970093,677.169128 422.970093,701.365234 
	C419.295837,701.365234 415.871185,701.365234 411.961670,701.365112 
z"/>
<path fill="#686566" opacity="1.000000" stroke="none" 
	d="
M761.380737,670.001099 
	C761.380981,680.779175 761.380981,691.056946 761.380981,701.437134 
	C757.494629,701.437134 753.962341,701.437134 749.618530,701.437134 
	C749.618530,684.690247 749.618530,668.300293 749.618530,651.910278 
	C749.618530,635.486206 749.618530,619.062134 749.618530,602.269409 
	C753.237915,602.269409 757.121948,602.269409 761.380432,602.269409 
	C761.380432,624.752075 761.380432,647.126465 761.380737,670.001099 
z"/>
<path fill="#686566" opacity="1.000000" stroke="none" 
	d="
M899.689636,683.999023 
	C899.689575,665.208557 899.689575,646.918030 899.689575,627.889465 
	C903.137390,627.889465 906.276489,627.563660 909.279785,628.060120 
	C910.381348,628.242188 911.949829,630.359497 911.968201,631.613647 
	C912.206726,647.922668 912.211853,664.235352 912.259583,680.547058 
	C912.279968,687.507080 912.262939,694.467285 912.262939,701.662415 
	C908.077698,701.411682 904.210938,701.179993 899.689697,700.909119 
	C899.689697,695.344971 899.689697,689.921936 899.689636,683.999023 
z"/>
<path fill="#6A6768" opacity="1.000000" stroke="none" 
	d="
M672.142090,759.663818 
	C674.038513,763.943237 675.798828,767.863525 678.107056,773.004028 
	C683.143982,761.493530 687.606689,751.552490 691.838196,741.514038 
	C693.877258,736.676636 693.789185,736.513489 699.493591,736.848694 
	C699.493591,742.500305 699.493652,748.251282 699.493591,754.002258 
	C699.493469,761.667114 699.402283,769.333618 699.534668,776.996155 
	C699.593445,780.399658 698.149048,781.015503 694.572266,779.857300 
	C694.572266,769.932373 694.572266,759.912964 694.572266,749.893494 
	C694.209106,749.810547 693.846008,749.727600 693.482849,749.644714 
	C692.836792,750.466553 691.962158,751.194580 691.580444,752.124878 
	C688.135010,760.521545 684.832214,768.977173 681.325562,777.347595 
	C680.849487,778.484192 679.446533,780.021729 678.532043,779.982727 
	C677.427979,779.935547 675.905212,778.619873 675.397034,777.481323 
	C672.030762,769.938965 668.918457,762.283691 665.645996,754.698669 
	C665.011292,753.227539 664.035095,751.903687 663.216431,750.511902 
	C662.695618,750.647095 662.174805,750.782288 661.653992,750.917480 
	C661.653992,760.575500 661.653992,770.233459 661.653992,780.147217 
	C659.591614,780.147217 658.376770,780.147217 656.833130,780.147217 
	C656.833130,765.577759 656.833130,751.333191 656.833130,736.992981 
	C661.316650,735.455017 663.195374,738.491333 664.560120,741.443665 
	C667.264587,747.294434 669.548340,753.339783 672.142090,759.663818 
z"/>
<path fill="#666263" opacity="1.000000" stroke="none" 
	d="
M793.883057,629.458496 
	C794.075745,653.495911 794.075745,677.104858 794.075745,701.256104 
	C790.192383,701.256104 786.667114,701.256104 782.841125,701.256104 
	C782.841125,677.671143 782.839539,653.713379 782.852905,629.755615 
	C782.853149,629.288208 783.029175,628.820923 783.300842,627.470337 
	C786.781311,627.992859 790.235840,628.511414 793.883057,629.458496 
z"/>
<path fill="#737071" opacity="1.000000" stroke="none" 
	d="
M220.108582,774.727783 
	C226.449417,772.402161 229.946640,767.659424 229.493515,761.926880 
	C223.897461,761.926880 218.273499,761.926880 212.725739,761.926880 
	C211.597656,757.339417 213.498276,755.892700 217.638214,756.076782 
	C222.125183,756.276306 226.631180,756.228577 231.122482,756.086548 
	C234.167374,755.990295 235.052948,757.346313 235.273178,760.239319 
	C236.118866,771.347290 225.068741,780.370117 217.053558,780.713806 
	C205.457809,781.211182 195.769516,773.944580 194.870132,763.260742 
	C194.528336,759.200317 194.622528,754.987732 195.306549,750.979065 
	C197.082581,740.570923 205.156891,737.174438 214.134201,735.468506 
	C220.669144,734.226746 229.522217,740.003906 233.563629,747.560669 
	C230.731247,749.672180 228.422211,748.836243 226.272186,746.436279 
	C221.958130,741.620911 216.825012,738.827148 210.375671,741.576538 
	C201.959854,745.164185 199.050079,752.003540 199.603912,760.868530 
	C199.962631,766.610474 203.542038,772.527161 209.521133,774.402771 
	C212.679245,775.393372 216.327148,774.822510 220.108582,774.727783 
z"/>
<path fill="#6E6B6C" opacity="1.000000" stroke="none" 
	d="
M779.877197,751.001709 
	C779.877258,759.659729 780.022095,767.822754 779.756836,775.972412 
	C779.702881,777.629761 778.104492,779.236816 777.218079,780.867065 
	C775.864197,779.675049 774.510376,778.482971 772.640442,776.836426 
	C769.180237,780.876038 763.719177,782.607849 757.765625,780.174622 
	C754.582336,778.873718 751.111328,776.822388 749.216309,774.102234 
	C744.007324,766.625305 745.716248,753.429932 751.817688,748.730164 
	C757.928894,744.022644 767.063599,744.961487 773.741760,751.658630 
	C773.741760,745.530762 773.741760,740.071228 773.741760,734.233459 
	C776.025330,734.080383 777.590759,733.975464 779.877258,733.822205 
	C779.877258,739.631531 779.877258,745.066711 779.877197,751.001709 
M760.149536,751.055603 
	C752.022339,756.967102 750.714844,760.106445 753.075012,768.041565 
	C754.548523,772.995605 760.715637,776.412964 765.333618,775.472656 
	C772.770569,773.958313 774.510620,766.844238 773.905945,761.404236 
	C773.108765,754.231873 768.916321,751.022644 760.149536,751.055603 
z"/>
<path fill="#6F6B6C" opacity="1.000000" stroke="none" 
	d="
M364.170227,746.135132 
	C365.354340,747.438599 366.750122,748.724731 366.781006,750.042725 
	C366.975403,758.339600 367.066345,766.651978 366.712921,774.938843 
	C366.627716,776.936035 364.738495,778.856262 363.678894,780.811951 
	C362.087219,779.522034 360.495514,778.232117 358.643707,776.731445 
	C350.827026,781.939453 344.583710,782.531433 340.244446,778.022339 
	C332.597015,770.075623 330.719391,758.880981 335.802399,751.911865 
	C338.730591,747.897034 342.916931,745.356201 347.546356,745.531982 
	C351.650024,745.687866 355.675415,747.905151 359.039398,748.988281 
	C360.646240,748.014343 362.198547,747.073425 364.170227,746.135132 
M340.008820,756.907898 
	C340.009338,760.906921 338.993378,765.297607 340.334991,768.779968 
	C341.391052,771.521057 345.104828,774.439209 348.074585,775.010681 
	C356.107300,776.556641 360.106262,772.052490 360.031952,762.892883 
	C359.983643,756.943176 357.631531,752.882507 353.408661,751.458618 
	C348.035522,749.647034 344.308624,750.994995 340.008820,756.907898 
z"/>
<path fill="#6C696A" opacity="1.000000" stroke="none" 
	d="
M886.881165,766.588135 
	C887.102966,761.100525 886.139465,755.980652 889.998352,751.506958 
	C895.892517,744.673828 906.463867,743.671387 912.861328,749.447876 
	C914.662415,748.374695 916.311523,747.392151 917.960571,746.409607 
	C918.536499,748.123779 919.577087,749.831726 919.599854,751.553223 
	C919.663269,756.353699 919.232544,761.158325 919.133606,765.964050 
	C919.038147,770.604614 919.112915,775.248657 919.112915,779.831848 
	C915.676514,780.560364 915.676514,780.560364 913.800659,776.102539 
	C901.228699,786.653503 888.365234,778.469177 886.881165,766.588135 
M912.941223,769.987427 
	C913.288086,766.753052 914.061218,763.496704 913.895996,760.288696 
	C913.513123,752.853882 904.638672,748.590576 898.224487,752.118774 
	C892.983459,755.001770 892.541077,759.523560 892.765991,764.489502 
	C892.998169,769.614929 894.999634,773.320251 900.359009,775.184143 
	C905.980896,777.139343 909.364441,774.404236 912.941223,769.987427 
z"/>
<path fill="#6A6768" opacity="1.000000" stroke="none" 
	d="
M257.059265,765.120483 
	C254.903915,765.119690 253.212463,764.936768 251.580170,765.169189 
	C249.891617,765.409668 248.260498,766.053467 246.604248,766.520752 
	C247.396057,768.793701 247.559784,771.701050 249.096115,773.221924 
	C253.936249,778.013794 259.852661,777.624878 265.026367,773.103577 
	C266.857483,771.503235 269.150970,770.432129 271.495575,769.544006 
	C267.534882,779.571716 261.148590,782.668091 251.748672,779.784546 
	C244.878632,777.677124 239.852417,769.013794 240.874725,761.042053 
	C242.068939,751.729919 247.707703,746.207764 256.357117,745.879944 
	C266.429077,745.498169 269.958771,749.448853 272.881378,765.120850 
	C267.676025,765.120850 262.612579,765.120850 257.059265,765.120483 
M260.862000,760.229309 
	C262.770416,760.229309 264.678802,760.229309 266.672882,760.229309 
	C264.901031,752.979492 262.147278,749.814880 256.974457,750.517944 
	C250.898544,751.343689 248.064819,752.069214 247.296249,760.484497 
	C251.566238,760.484497 255.800919,760.484497 260.862000,760.229309 
z"/>
<path fill="#6B6869" opacity="1.000000" stroke="none" 
	d="
M797.416626,765.120667 
	C793.411743,765.228149 792.671143,766.885986 794.038025,770.018188 
	C796.995239,776.794250 806.227417,778.650452 811.463135,773.421997 
	C812.271057,772.615173 812.719421,771.295410 813.647217,770.803101 
	C814.638245,770.277344 816.000305,770.451111 817.200439,770.319580 
	C817.233521,771.460754 817.709351,772.849548 817.230957,773.704529 
	C812.574219,782.026978 796.472107,782.715149 790.934631,774.914673 
	C786.331360,768.430420 787.037476,756.581482 792.373474,750.771362 
	C797.040649,745.689331 803.460938,744.497314 811.009155,747.311157 
	C816.090027,749.205261 819.003662,754.047424 819.105469,760.786133 
	C819.124878,762.070679 819.108215,763.355835 819.108215,765.116333 
	C811.753052,765.116333 804.817688,765.116333 797.416626,765.120667 
M800.153381,760.431580 
	C804.669922,760.431580 809.186401,760.431580 813.930359,760.431580 
	C811.437683,752.168579 808.487976,750.031616 801.752014,750.953125 
	C796.326172,751.695312 794.401062,754.008911 794.434204,760.094849 
	C796.030579,760.182312 797.649414,760.270935 800.153381,760.431580 
z"/>
<path fill="#6C696A" opacity="1.000000" stroke="none" 
	d="
M605.396912,779.103699 
	C597.056274,771.759338 595.029602,760.671570 600.224670,752.669128 
	C605.491089,744.556763 615.696106,743.230896 622.885498,749.719177 
	C623.360291,750.147644 623.877808,750.528870 624.768127,751.250244 
	C625.482239,748.487244 625.421936,744.821167 630.109558,747.046509 
	C630.109558,757.179199 630.189209,767.470154 629.998901,777.756104 
	C629.977478,778.916260 628.432129,780.048218 627.593384,781.193237 
	C627.170593,780.954773 626.747742,780.716248 626.324951,780.477783 
	C626.059265,778.617126 625.793640,776.756470 625.360962,773.726074 
	C619.941833,781.719788 612.922058,780.797363 605.396912,779.103699 
M606.540405,772.982361 
	C610.383850,776.744507 615.033020,776.530029 619.297302,774.576904 
	C623.855713,772.489014 624.612122,767.568054 624.858643,763.200806 
	C625.179871,757.509216 621.104065,751.134888 615.271240,750.963928 
	C607.668213,750.741150 603.059082,754.294128 603.181152,761.731323 
	C603.239502,765.291870 605.046021,768.823730 606.540405,772.982361 
z"/>
<path fill="#787576" opacity="1.000000" stroke="none" 
	d="
M855.794800,777.285583 
	C854.128662,778.706726 852.481750,779.695740 850.834839,780.684753 
	C850.284546,779.096252 849.289185,777.516296 849.258667,775.917908 
	C849.099609,767.598267 849.075073,759.271362 849.268066,750.953125 
	C849.314514,748.953857 850.366760,746.977905 851.175598,744.252563 
	C853.492920,746.322205 854.829651,747.515991 856.166260,748.709717 
	C864.008850,744.285278 871.622681,744.407471 875.914856,749.878601 
	C878.002075,752.539185 879.293030,756.322937 879.647278,759.732910 
	C880.245972,765.496765 880.010132,771.379395 879.660706,777.184143 
	C879.585022,778.441223 877.543762,779.579956 876.407837,780.773132 
	C875.593018,779.370178 874.150879,778.001282 874.072327,776.558228 
	C873.738831,770.430420 874.078857,764.261597 873.645386,758.145081 
	C873.315552,753.490662 868.949951,750.092163 864.577454,750.326477 
	C859.315308,750.608521 855.812317,754.224609 855.812317,759.375916 
	C855.812378,765.201782 855.813416,771.027649 855.794800,777.285583 
z"/>
<path fill="#6C696A" opacity="1.000000" stroke="none" 
	d="
M709.081238,754.498291 
	C713.968750,748.733948 719.053955,744.100769 727.195984,745.846680 
	C736.785400,747.903015 741.914429,755.139587 740.489563,764.912537 
	C738.544312,778.253845 730.417786,783.579468 717.370850,779.861755 
	C712.497803,778.473145 709.157715,774.671265 708.441101,770.071533 
	C707.676147,765.161377 708.741943,759.965942 709.081238,754.498291 
M734.015625,768.218445 
	C734.105103,767.904785 734.190247,767.589844 734.284546,767.277649 
	C736.294739,760.626709 733.941833,754.127380 728.635925,751.677673 
	C724.140198,749.601990 718.077515,751.180359 715.333252,755.140930 
	C712.051147,759.877686 712.742126,768.376892 716.723022,772.236755 
	C722.668335,778.001099 728.410461,776.930115 734.015625,768.218445 
z"/>
<path fill="#625F60" opacity="1.000000" stroke="none" 
	d="
M436.237915,775.832642 
	C426.041870,765.976257 427.293640,748.959229 436.003601,740.936340 
	C444.379272,733.221375 464.900970,735.244263 468.048401,748.637024 
	C465.163818,749.519958 463.235870,749.395935 461.199066,746.329468 
	C457.795227,741.204956 450.457977,738.937988 445.458557,740.586426 
	C438.922302,742.741394 434.432251,749.214294 434.017090,755.936401 
	C433.545898,763.564880 434.938965,769.998596 442.098358,774.210510 
	C447.154358,777.184937 454.391937,776.583557 458.616211,772.471008 
	C463.332977,767.879272 463.332977,767.879272 467.767517,768.181458 
	C465.565094,779.393860 448.124481,784.398376 436.237915,775.832642 
z"/>
<path fill="#6C696A" opacity="1.000000" stroke="none" 
	d="
M383.277679,746.890869 
	C394.957397,743.710144 403.043579,747.782654 405.192139,756.007629 
	C407.776001,765.899170 406.678192,773.391968 400.187958,777.707214 
	C394.827087,781.271484 384.251892,781.142822 379.369873,777.576843 
	C374.679413,774.150818 372.359894,764.581360 374.413025,757.350769 
	C375.745392,752.658691 378.369110,749.066223 383.277679,746.890869 
M397.121948,753.342468 
	C390.923004,748.211609 381.170258,750.852539 379.068359,761.019287 
	C378.180420,765.314331 380.824615,772.144592 384.086029,774.020142 
	C388.734863,776.693481 393.658661,776.015686 397.901550,772.118042 
	C402.079315,768.280273 402.020142,759.584473 397.121948,753.342468 
z"/>
<path fill="#6F6B6C" opacity="1.000000" stroke="none" 
	d="
M588.023865,749.915283 
	C589.085144,751.914307 589.891846,753.652710 590.698547,755.391113 
	C590.408081,755.848877 590.117615,756.306641 589.827087,756.764343 
	C588.294067,756.043396 586.348572,755.693054 585.305054,754.532043 
	C582.147156,751.018494 576.398010,748.914917 571.938599,750.879761 
	C567.663025,752.763611 565.515503,756.762573 565.723022,761.321838 
	C565.882568,764.829163 566.432922,768.723999 568.144348,771.671387 
	C571.770813,777.916626 579.550598,777.888855 584.600708,772.373413 
	C586.023193,770.819946 588.082275,769.849304 590.885376,767.885559 
	C589.584961,776.375732 585.698059,779.790405 578.281189,780.537476 
	C570.585876,781.312500 564.086487,777.687927 561.774170,771.331787 
	C558.674744,762.811646 560.956177,752.338745 566.835815,748.096069 
	C571.910156,744.434570 582.617676,745.231812 588.023865,749.915283 
z"/>
<path fill="#676364" opacity="1.000000" stroke="none" 
	d="
M507.911133,759.016602 
	C508.214386,754.762817 508.519440,751.004944 508.915833,746.121948 
	C511.212067,747.398499 512.864502,748.317078 514.711975,749.344116 
	C518.636108,746.223755 523.160095,745.005371 528.599426,746.688599 
	C534.785767,748.602966 536.641602,753.400085 537.010986,758.802979 
	C537.484924,765.735474 537.126160,772.724915 537.126160,779.979858 
	C535.575378,779.979858 534.345459,779.979858 532.784729,779.979858 
	C532.784729,773.565735 533.175720,767.400146 532.693970,761.303589 
	C531.954956,751.952393 529.209106,749.488342 521.325684,750.105652 
	C517.128967,750.434326 513.174316,754.715027 513.229980,759.054077 
	C513.300354,764.543152 513.242798,770.035767 513.422424,775.520874 
	C513.545349,779.272278 512.118652,780.835388 507.912964,779.740173 
	C507.912964,773.061096 507.912964,766.286865 507.911133,759.016602 
z"/>
<path fill="#625F60" opacity="1.000000" stroke="none" 
	d="
M292.627747,749.234375 
	C291.282318,749.308167 290.020569,749.122009 289.392426,749.666687 
	C287.490265,751.315857 284.212433,753.525818 284.465607,755.004395 
	C284.834900,757.160950 287.538300,759.334412 289.753815,760.640320 
	C291.941711,761.930054 294.739624,762.241028 297.306488,762.819031 
	C301.530670,763.770325 303.903503,766.134644 304.122467,770.633301 
	C304.351898,775.347778 301.788971,778.681641 297.848206,779.646118 
	C292.782501,780.885986 287.172089,781.170349 282.719696,777.386597 
	C280.974030,775.903076 279.967072,773.550232 278.623718,771.593262 
	C279.018921,771.111145 279.414124,770.628967 279.809326,770.146790 
	C281.737579,771.350159 283.948181,772.264038 285.538055,773.814392 
	C289.410797,777.591187 293.118317,778.271912 297.314087,774.964966 
	C298.610260,773.943298 299.762787,771.787659 299.662170,770.236755 
	C299.576630,768.917419 297.819946,767.240540 296.402283,766.576599 
	C293.924469,765.416138 291.163269,764.814880 288.478302,764.151550 
	C281.495728,762.426514 279.727936,760.578735 279.892609,754.924255 
	C280.038513,749.912964 282.826111,747.086182 288.724823,745.967712 
	C296.428314,744.507202 301.981262,748.201904 302.142731,756.530945 
	C299.095551,754.123474 296.048340,751.716064 292.627747,749.234375 
z"/>
<path fill="#676364" opacity="1.000000" stroke="none" 
	d="
M413.216309,618.100708 
	C407.460693,617.409546 403.198547,613.363525 402.923645,608.737122 
	C402.678711,604.614929 406.410187,598.914917 409.994659,597.935730 
	C416.331207,596.204895 421.574615,598.281494 424.391937,603.637695 
	C426.459564,607.568604 425.396820,613.681519 421.530640,616.079956 
	C419.330994,617.444458 416.302185,617.472412 413.216309,618.100708 
z"/>
<path fill="#666263" opacity="1.000000" stroke="none" 
	d="
M313.902039,767.074951 
	C314.326324,761.379883 314.757751,756.138489 315.212311,750.616272 
	C313.076111,750.277283 311.530060,750.031921 309.984009,749.786560 
	C314.371674,746.916199 314.396881,742.675110 313.735077,738.096252 
	C315.645782,738.096252 317.059448,738.096252 318.813354,738.096252 
	C318.997986,740.791992 319.184784,743.519043 319.359009,746.062866 
	C322.275818,746.761902 324.857697,747.380676 327.439575,747.999451 
	C327.316467,748.619629 327.193359,749.239807 327.070251,749.860046 
	C324.672028,750.000610 322.273804,750.141235 319.119446,750.326172 
	C319.119446,757.946228 318.758575,765.553223 319.427704,773.068542 
	C319.559570,774.549500 323.662323,775.676880 326.294952,776.575378 
	C327.821472,778.776245 327.461060,780.134033 323.900574,780.168030 
	C316.407471,780.239563 314.479614,778.913086 313.902039,767.074951 
z"/>
<path fill="#787576" opacity="1.000000" stroke="none" 
	d="
M498.812408,762.997131 
	C498.808716,767.828003 499.137390,772.199890 498.629211,776.472229 
	C498.443665,778.032166 496.268921,779.355469 495.001678,780.786682 
	C494.067657,779.384705 492.369476,778.006287 492.325470,776.576965 
	C492.069427,768.253113 492.421906,759.909424 492.119568,751.588745 
	C491.940765,746.666504 493.739075,745.222229 498.813446,746.761108 
	C498.813446,751.931030 498.813446,757.214905 498.812408,762.997131 
z"/>
<path fill="#686566" opacity="1.000000" stroke="none" 
	d="
M898.286072,609.421875 
	C897.634033,604.118225 899.466370,600.747314 904.490356,599.455811 
	C908.478333,598.430603 911.235046,600.455200 913.147827,603.453125 
	C915.537842,607.198914 913.655945,613.229370 909.954407,614.904846 
	C905.218079,617.048645 900.577637,614.989075 898.286072,609.421875 
z"/>
<path fill="#6B6869" opacity="1.000000" stroke="none" 
	d="
M780.754028,610.966431 
	C780.229858,606.928284 779.371216,602.694763 783.425720,600.848816 
	C785.927002,599.710083 789.591675,599.549316 792.149780,600.508240 
	C795.418091,601.733337 797.011902,605.423584 795.765991,608.789185 
	C794.852783,611.256104 792.726135,614.081604 790.427246,615.044128 
	C786.708069,616.601074 782.891235,615.557007 780.754028,610.966431 
z"/>
<path fill="#686566" opacity="1.000000" stroke="none" 
	d="
M550.283325,780.356445 
	C548.800598,779.024048 546.806641,777.706177 546.767395,776.332458 
	C546.492676,766.718018 546.621948,757.092102 546.621948,747.168640 
	C548.430725,746.804871 550.089844,746.471252 552.107544,746.065491 
	C552.107544,757.033752 552.135010,767.631409 552.046143,778.228088 
	C552.040222,778.937561 551.153687,779.639648 550.283325,780.356445 
z"/>
<path fill="#676364" opacity="1.000000" stroke="none" 
	d="
M482.145935,745.018005 
	C482.145935,755.843384 482.056122,766.171875 482.200256,776.497009 
	C482.243866,779.621460 481.294250,780.708069 478.118347,779.779602 
	C478.118347,764.531860 478.118347,749.443604 478.118347,734.281921 
	C480.919373,733.351868 482.360168,733.865173 482.174774,737.025940 
	C482.028717,739.515930 482.145752,742.021240 482.145935,745.018005 
z"/>
<path fill="#666263" opacity="1.000000" stroke="none" 
	d="
M832.085571,768.013184 
	C832.086487,771.327026 831.935608,774.159119 832.127686,776.967773 
	C832.348389,780.194885 830.901489,780.612854 828.116943,779.652527 
	C828.116943,768.901306 828.116943,758.171570 828.116943,745.731628 
	C830.449158,747.651611 831.879700,748.829285 833.525513,750.184204 
	C835.833130,748.829285 838.955261,746.996155 842.635803,744.835144 
	C843.294189,748.692688 843.598511,750.813904 839.762024,751.213623 
	C834.424011,751.769714 832.111084,754.685059 832.081970,760.051697 
	C832.068420,762.541443 832.083313,765.031250 832.085571,768.013184 
z"/>
<path fill="#6C696A" opacity="1.000000" stroke="none" 
	d="
M356.408295,738.506470 
	C357.762268,737.130859 358.816071,735.989685 360.568573,734.091797 
	C360.322662,742.406372 357.338470,744.257019 350.325409,740.535645 
	C346.390076,738.447510 344.015839,738.595825 341.594788,742.365967 
	C341.223236,742.107117 340.851654,741.848267 340.480103,741.589355 
	C341.352844,739.591736 341.757721,736.471008 343.210541,735.865784 
	C345.271759,735.007141 348.163513,735.739746 350.589111,736.286194 
	C352.515320,736.720093 354.274658,737.894958 356.408295,738.506470 
z"/>
<path fill="#787576" opacity="1.000000" stroke="none" 
	d="
M493.192352,736.217590 
	C495.850098,734.597107 498.166870,733.111572 500.524200,731.600037 
	C502.891571,736.527832 502.017975,737.339600 488.981995,741.166748 
	C490.271759,739.562012 491.561554,737.957275 493.192352,736.217590 
z"/>
<path fill="#737071" opacity="1.000000" stroke="none" 
	d="
M552.140137,733.765015 
	C555.337402,736.706787 552.713684,738.456909 551.114441,740.031494 
	C550.532043,740.604919 547.918396,740.308899 547.846252,740.014099 
	C547.355225,738.009216 546.653015,735.686584 547.251709,733.873657 
	C548.085388,731.348816 550.158142,731.611633 552.140137,733.765015 
z"/>
<path fill="#FEFEFE" opacity="1.000000" stroke="none" 
	d="
M332.584473,658.869812 
	C333.511078,651.270569 338.266388,646.969788 344.312897,644.440613 
	C351.061920,641.617554 357.399780,643.680847 362.855957,648.369019 
	C374.511932,658.384338 370.611115,678.320557 358.845154,684.178284 
	C347.492432,689.830261 333.317657,683.305481 332.059021,667.636658 
	C331.835388,664.852295 332.217560,662.019348 332.584473,658.869812 
z"/>
<path fill="#FFFFFF" opacity="1.000000" stroke="none" 
	d="
M571.423096,654.934265 
	C571.784241,661.063538 573.040161,667.167236 571.714783,672.646484 
	C569.381042,682.294800 560.710938,687.176453 550.886230,685.978943 
	C542.882019,685.003357 536.436279,677.093384 535.900024,667.736450 
	C535.464478,660.138489 536.022156,652.980530 542.432983,647.538635 
	C549.936768,641.168884 565.407959,641.950378 571.423096,654.934265 
z"/>
<path fill="#FEFEFE" opacity="1.000000" stroke="none" 
	d="
M263.965820,642.909485 
	C277.491150,641.399475 283.745483,647.357300 284.753693,657.732300 
	C273.214569,657.732300 261.695526,657.732300 249.929810,657.732300 
	C251.745819,649.969788 255.352234,644.347961 263.965820,642.909485 
z"/>
<path fill="#FFFFFF" opacity="1.000000" stroke="none" 
	d="
M760.558228,751.040405 
	C768.916321,751.022644 773.108765,754.231873 773.905945,761.404236 
	C774.510620,766.844238 772.770569,773.958313 765.333618,775.472656 
	C760.715637,776.412964 754.548523,772.995605 753.075012,768.041565 
	C750.714844,760.106445 752.022339,756.967102 760.558228,751.040405 
z"/>
<path fill="#FEFEFE" opacity="1.000000" stroke="none" 
	d="
M340.184082,756.543091 
	C344.308624,750.994995 348.035522,749.647034 353.408661,751.458618 
	C357.631531,752.882507 359.983643,756.943176 360.031952,762.892883 
	C360.106262,772.052490 356.107300,776.556641 348.074585,775.010681 
	C345.104828,774.439209 341.391052,771.521057 340.334991,768.779968 
	C338.993378,765.297607 340.009338,760.906921 340.184082,756.543091 
z"/>
<path fill="#FEFEFE" opacity="1.000000" stroke="none" 
	d="
M912.809326,770.366760 
	C909.364441,774.404236 905.980896,777.139343 900.359009,775.184143 
	C894.999634,773.320251 892.998169,769.614929 892.765991,764.489502 
	C892.541077,759.523560 892.983459,755.001770 898.224487,752.118774 
	C904.638672,748.590576 913.513123,752.853882 913.895996,760.288696 
	C914.061218,763.496704 913.288086,766.753052 912.809326,770.366760 
z"/>
<path fill="#F9F9F9" opacity="1.000000" stroke="none" 
	d="
M260.448792,760.356934 
	C255.800919,760.484497 251.566238,760.484497 247.296249,760.484497 
	C248.064819,752.069214 250.898544,751.343689 256.974457,750.517944 
	C262.147278,749.814880 264.901031,752.979492 266.672882,760.229309 
	C264.678802,760.229309 262.770416,760.229309 260.448792,760.356934 
z"/>
<path fill="#F9F9F9" opacity="1.000000" stroke="none" 
	d="
M799.710815,760.395569 
	C797.649414,760.270935 796.030579,760.182312 794.434204,760.094849 
	C794.401062,754.008911 796.326172,751.695312 801.752014,750.953125 
	C808.487976,750.031616 811.437683,752.168579 813.930359,760.431580 
	C809.186401,760.431580 804.669922,760.431580 799.710815,760.395569 
z"/>
<path fill="#FEFEFE" opacity="1.000000" stroke="none" 
	d="
M606.300598,772.675415 
	C605.046021,768.823730 603.239502,765.291870 603.181152,761.731323 
	C603.059082,754.294128 607.668213,750.741150 615.271240,750.963928 
	C621.104065,751.134888 625.179871,757.509216 624.858643,763.200806 
	C624.612122,767.568054 623.855713,772.489014 619.297302,774.576904 
	C615.033020,776.530029 610.383850,776.744507 606.300598,772.675415 
z"/>
<path fill="#FEFEFE" opacity="1.000000" stroke="none" 
	d="
M733.978882,768.621704 
	C728.410461,776.930115 722.668335,778.001099 716.723022,772.236755 
	C712.742126,768.376892 712.051147,759.877686 715.333252,755.140930 
	C718.077515,751.180359 724.140198,749.601990 728.635925,751.677673 
	C733.941833,754.127380 736.294739,760.626709 734.284546,767.277649 
	C734.190247,767.589844 734.105103,767.904785 733.978882,768.621704 
z"/>
<path fill="#FEFEFE" opacity="1.000000" stroke="none" 
	d="
M397.449402,753.569214 
	C402.020142,759.584473 402.079315,768.280273 397.901550,772.118042 
	C393.658661,776.015686 388.734863,776.693481 384.086029,774.020142 
	C380.824615,772.144592 378.180420,765.314331 379.068359,761.019287 
	C381.170258,750.852539 390.923004,748.211609 397.449402,753.569214 
z"/>
</svg>